<svg width="856" height="805" viewBox="0 0 856 805" fill="none" xmlns="http://www.w3.org/2000/svg">
<path d="M1.08671 409.771C-2.34774 332.519 65.592 264.511 120.918 250.522C170.655 238.031 213.773 252.52 250.803 286.493C258.67 294.007 267.013 301.005 275.78 307.445C309.126 330.958 326.454 321.84 340.348 281.716C349.246 255.986 341.472 231.068 334.104 207.118C319.46 159.469 319.773 112.256 340.348 67.635C356.771 32.288 384.059 6.49582 426.022 0.844043C476.29 -5.96307 528.837 29.2279 537.392 76.6592C540.951 96.4248 532.178 114.348 529.149 133.115C526.277 150.882 522.905 168.555 524.872 186.728C526.964 206.744 538.422 213.613 556.781 205.463C572.226 197.996 586.173 187.762 597.932 175.269C648.543 124.465 707.803 120 769.873 146.198C815.083 165.308 821.858 213.926 788.013 246.65C771.528 262.575 750.078 269.413 730.596 279.873C720.542 285.275 709.958 289.709 700.154 295.486C671.554 312.504 667.807 340.856 689.663 367.086C713.361 395.501 747.081 405.118 780.02 416.109C812.96 427.101 840.685 443.119 851.832 478.716C865.039 520.62 845.587 552.751 811.461 570.768C765.97 594.78 716.483 594.406 667.121 588.286C645.622 585.068 623.861 583.96 602.147 584.976C576.763 586.818 565.273 607.52 555.126 627.848C541.669 654.795 536.393 684.99 523.217 711.907C506.763 745.318 490.871 779.228 452.561 794.997C400.482 816.418 322.52 806.051 296.824 738.229C286.053 709.752 288.925 680.15 296.356 650.986C305.535 614.827 321.146 580.667 329.327 544.039C335.571 516.093 325.049 494.079 301.008 486.522C295.502 485.134 289.746 485.069 284.21 486.335C247.118 491.956 213.149 508.692 176.462 515.874C145.24 522.119 114.018 524.648 82.452 518.341C31.3411 508.224 -7.03108 467.475 1.08671 409.771ZM560.965 394.814C566.054 356.594 535.331 332.363 513.101 328.179C466.892 319.436 425.679 342.043 407.32 385.321C390.678 424.54 410.161 460.262 441.415 473.72C498.583 497.982 565.242 440.746 560.965 394.72V394.814Z"/>
</svg>
